<svg xmlns="http://www.w3.org/2000/svg" viewBox="0 0 700 700" fill="none">
  <circle cx="350" cy="350" r="286" stroke="#1D201D" stroke-width="1.2" opacity=".24"/>
  <circle cx="350" cy="350" r="244" stroke="#969B95" stroke-width="10" opacity=".7"/>
  <circle cx="350" cy="350" r="219" stroke="#1D201D" stroke-width="1.5" opacity=".26"/>
  <circle cx="350" cy="350" r="158" stroke="#969B95" stroke-width="4" opacity=".62"/>
  <circle cx="350" cy="350" r="92" stroke="#1D201D" stroke-width="2" opacity=".32"/>
  <circle cx="350" cy="350" r="18" fill="#1D201D"/>
  <g stroke="#1D201D" stroke-width="2" opacity=".36"><circle cx="350" cy="106" r="7"/><circle cx="472" cy="139" r="7"/><circle cx="561" cy="228" r="7"/><circle cx="594" cy="350" r="7"/><circle cx="561" cy="472" r="7"/><circle cx="472" cy="561" r="7"/><circle cx="350" cy="594" r="7"/><circle cx="228" cy="561" r="7"/><circle cx="139" cy="472" r="7"/><circle cx="106" cy="350" r="7"/><circle cx="139" cy="228" r="7"/><circle cx="228" cy="139" r="7"/></g>
  <path d="M350 40V84M350 616V660M40 350H84M616 350H660" stroke="#657066" stroke-width="2"/>
</svg>